<svg width="18" height="18" viewBox="0 0 18 18" fill="none" xmlns="http://www.w3.org/2000/svg">
<path d="M15.2199 18C15.0899 18 14.96 17.99 14.84 17.97C7.17995 16.91 1.08995 10.82 0.0299504 3.16C-0.0800496 2.36 0.15995 1.56 0.68995 0.95C1.20995 0.35 1.96995 0 2.76995 0H6.06995C6.92995 0 7.64995 0.61 7.79995 1.45L8.18995 3.64C8.37995 4.69 7.92995 5.76 7.06995 6.38L6.73995 6.61C7.94995 8.45 9.53995 10.03 11.4 11.24L11.61 10.95C12.2199 10.08 13.3 9.64 14.35 9.82L16.54 10.21C17.38 10.36 17.99 11.09 17.99 11.94V15.24C17.99 16.04 17.64 16.8 17.04 17.33C16.54 17.76 15.8899 18 15.2199 18ZM2.76995 1.5C2.39995 1.5 2.05995 1.65 1.80995 1.94C1.56995 2.22 1.45995 2.59 1.50995 2.96C2.47995 9.95 8.04995 15.52 15.04 16.49C15.41 16.54 15.78 16.43 16.0599 16.19C16.34 15.94 16.5 15.61 16.5 15.23V11.93C16.5 11.8 16.41 11.7 16.29 11.68L14.1 11.29C13.61 11.21 13.13 11.41 12.85 11.81L12.2299 12.68C12 13 11.57 13.09 11.2299 12.89C8.69995 11.4 6.56995 9.29 5.08995 6.79C4.88995 6.45 4.97995 6.02 5.29995 5.8L6.18995 5.17C6.58995 4.89 6.78995 4.4 6.70995 3.92L6.31995 1.71C6.29995 1.59 6.18995 1.5 6.06995 1.5H2.76995Z" fill="#8C8C8C"/>
</svg>
