<svg width="16" height="20" viewBox="0 0 16 20" fill="none" xmlns="http://www.w3.org/2000/svg">
<path d="M15.25 8H14V5.75C14 2.58 11.42 0 8.25 0H7.75C4.58 0 2 2.58 2 5.75V8H0.75C0.34 8 0 8.34 0 8.75V17.25C0 18.77 1.23 20 2.75 20H13.25C14.77 20 16 18.77 16 17.25V8.75C16 8.34 15.66 8 15.25 8ZM3.5 5.75C3.5 3.41 5.41 1.5 7.75 1.5H8.25C10.59 1.5 12.5 3.41 12.5 5.75V8H3.5V5.75ZM14.5 17.25C14.5 17.94 13.94 18.5 13.25 18.5H2.75C2.06 18.5 1.5 17.94 1.5 17.25V9.5H14.5V17.25Z" fill="#8C8C8C"/>
<path d="M9.25 13C9.25 13.17 9.22 13.33 9.16 13.48C9.09 13.63 9 13.77 8.88 13.88C8.84 13.92 8.8 13.96 8.75 14V15.29C8.75 15.71 8.41 16.04 8 16.04C7.59 16.04 7.25 15.71 7.25 15.29V14C7.2 13.96 7.16 13.92 7.12 13.88C7 13.77 6.91 13.63 6.84 13.48C6.78 13.33 6.75 13.17 6.75 13C6.75 12.92 6.76 12.84 6.77 12.76C6.79 12.68 6.81 12.6 6.85 12.52C6.88 12.45 6.92 12.37 6.96 12.31C7.01 12.24 7.06 12.17 7.12 12.12C7.17 12.06 7.24 12.01 7.31 11.96C7.37 11.92 7.45 11.88 7.52 11.85C7.6 11.81 7.68 11.79 7.76 11.77C8.16 11.7 8.6 11.83 8.88 12.12C9.12 12.35 9.25 12.67 9.25 13Z" fill="#8C8C8C"/>
</svg>
