<svg width="20" height="16" viewBox="0 0 20 16" fill="none" xmlns="http://www.w3.org/2000/svg">
<path d="M19.76 0.2C19.73 0.17 19.7 0.15 19.67 0.13C19.63 0.1 19.58 0.0799999 19.54 0.0599999C19.54 0.0599999 19.53 0.0500002 19.52 0.0500002C19.44 0.0200002 19.35 0 19.26 0H0.74C0.65 0 0.56 0.0200002 0.48 0.0500002C0.47 0.0500002 0.46 0.0599999 0.46 0.0599999C0.42 0.0799999 0.37 0.1 0.33 0.13C0.3 0.15 0.27 0.17 0.24 0.2C0.08 0.35 0 0.55 0 0.75V15.25C0 15.66 0.34 16 0.75 16H19.25C19.66 16 20 15.66 20 15.25V0.75C20 0.55 19.92 0.35 19.76 0.2ZM17.52 1.5L11.63 7.79C10.77 8.71 9.23 8.71 8.37 7.79L2.48 1.5H17.52ZM18.5 14.5H1.5V2.65L7.28 8.82C7.99 9.58 8.96 10 10 10C11.04 10 12.01 9.58 12.72 8.82L18.5 2.65V14.5Z" fill="#8C8C8C"/>
</svg>
